<?xml version="1.0" encoding="UTF-8" standalone="no"?>
<!DOCTYPE svg PUBLIC "-//W3C//DTD SVG 1.1//EN" "http://www.w3.org/Graphics/SVG/1.1/DTD/svg11.dtd">
<svg width="100%" height="100%" viewBox="0 0 2060 553" version="1.1" xmlns="http://www.w3.org/2000/svg" xmlns:xlink="http://www.w3.org/1999/xlink" xml:space="preserve" xmlns:serif="http://www.serif.com/" style="fill-rule:evenodd;clip-rule:evenodd;stroke-miterlimit:2.613;">
    <g transform="matrix(4.16667,0,0,4.16667,-446,-325)">
        <g id="Layer-1" serif:id="Layer 1">
            <g transform="matrix(1,0,0,1,524.035,152.021)">
                <path d="M0,-60.766L18.531,-60.766L28.164,-42.067L37.518,-60.766L55.82,-60.766L38.924,-31.331L57.416,-0.002L38.504,-0.002L27.835,-19.521L17.089,-0.002L-1.67,-0.002L17.075,-31.671L0,-60.766ZM-40.948,-30.3C-40.948,-24.174 -39.922,-19.761 -37.884,-17.088C-35.832,-14.416 -33.049,-13.072 -29.529,-13.072C-25.923,-13.072 -23.113,-14.386 -21.139,-17.004C-19.149,-19.634 -18.163,-24.33 -18.163,-31.133C-18.163,-36.848 -19.2,-41.021 -21.264,-43.651C-23.34,-46.296 -26.137,-47.612 -29.682,-47.612C-33.074,-47.612 -35.808,-46.269 -37.858,-43.595C-39.922,-40.921 -40.948,-36.481 -40.948,-30.3M-57.732,-30.341C-57.732,-40.256 -55.263,-47.98 -50.314,-53.496C-45.365,-59.025 -38.478,-61.783 -29.643,-61.783C-20.594,-61.783 -13.618,-59.068 -8.72,-53.65C-3.821,-48.22 -1.38,-40.61 -1.38,-30.836C-1.38,-23.736 -2.442,-17.923 -4.581,-13.383C-6.72,-8.843 -9.822,-5.307 -13.86,-2.774C-17.91,-0.243 -22.948,1.017 -28.984,1.017C-35.112,1.017 -40.188,-0.073 -44.212,-2.252C-48.225,-4.444 -51.49,-7.894 -53.985,-12.618C-56.478,-17.328 -57.732,-23.241 -57.732,-30.341M-118.791,-60.766L-102.008,-60.766L-102.008,-39.55L-83.629,-39.55L-83.629,-60.766L-66.769,-60.766L-66.769,-0.002L-83.629,-0.002L-83.629,-24.614L-102.008,-24.614L-102.008,-0.002L-118.791,-0.002L-118.791,-60.766ZM-176.6,-20.102L-160.65,-21.218C-160.31,-18.333 -159.6,-16.127 -158.536,-14.627C-156.803,-12.18 -154.335,-10.95 -151.12,-10.95C-148.726,-10.95 -146.879,-11.572 -145.589,-12.831C-144.285,-14.089 -143.639,-15.546 -143.639,-17.201C-143.639,-18.772 -144.245,-20.186 -145.475,-21.43C-146.702,-22.676 -149.562,-23.836 -154.055,-24.952C-161.423,-26.791 -166.662,-29.252 -169.802,-32.322C-172.967,-35.377 -174.549,-39.28 -174.549,-44.033C-174.549,-47.145 -173.739,-50.086 -172.12,-52.858C-170.498,-55.645 -168.068,-57.824 -164.815,-59.408C-161.562,-60.993 -157.107,-61.783 -151.448,-61.783C-144.499,-61.783 -139.209,-60.341 -135.562,-57.441C-131.918,-54.556 -129.753,-49.959 -129.057,-43.651L-144.853,-42.605C-145.271,-45.363 -146.157,-47.371 -147.5,-48.616C-148.854,-49.875 -150.713,-50.497 -153.082,-50.497C-155.029,-50.497 -156.51,-50.03 -157.499,-49.111C-158.485,-48.191 -158.98,-47.06 -158.98,-45.73C-158.98,-44.768 -158.574,-43.906 -157.777,-43.127C-157.005,-42.321 -155.133,-41.586 -152.17,-40.893C-144.829,-39.125 -139.576,-37.328 -136.411,-35.518C-133.234,-33.707 -130.918,-31.474 -129.474,-28.786C-128.033,-26.112 -127.311,-23.114 -127.311,-19.791C-127.311,-15.9 -128.271,-12.307 -130.196,-9.012C-132.132,-5.731 -134.817,-3.228 -138.284,-1.53C-141.74,0.168 -146.094,1.017 -151.359,1.017C-160.6,1.017 -167.004,-0.978 -170.561,-4.953C-174.118,-8.927 -176.13,-13.978 -176.6,-20.102M-222.319,-30.3C-222.319,-24.174 -221.293,-19.761 -219.255,-17.088C-217.205,-14.416 -214.42,-13.072 -210.901,-13.072C-207.294,-13.072 -204.485,-14.386 -202.51,-17.004C-200.522,-19.634 -199.534,-24.33 -199.534,-31.133C-199.534,-36.848 -200.572,-41.021 -202.635,-43.651C-204.711,-46.296 -207.509,-47.612 -211.054,-47.612C-214.446,-47.612 -217.179,-46.269 -219.229,-43.595C-221.293,-40.921 -222.319,-36.481 -222.319,-30.3M-239.104,-30.341C-239.104,-40.256 -236.635,-47.98 -231.686,-53.496C-226.737,-59.025 -219.851,-61.783 -211.016,-61.783C-201.965,-61.783 -194.991,-59.068 -190.092,-53.65C-185.193,-48.22 -182.751,-40.61 -182.751,-30.836C-182.751,-23.736 -183.813,-17.923 -185.952,-13.383C-188.092,-8.843 -191.193,-5.307 -195.231,-2.774C-199.282,-0.243 -204.32,1.017 -210.356,1.017C-216.484,1.017 -221.56,-0.073 -225.584,-2.252C-229.598,-4.444 -232.863,-7.894 -235.356,-12.618C-237.851,-17.328 -239.104,-23.241 -239.104,-30.341M-277.658,-36.07L-270.558,-36.07C-269.798,-36.07 -268.303,-36.353 -266.102,-36.905C-264.989,-37.144 -264.076,-37.782 -263.38,-38.814C-262.671,-39.847 -262.318,-41.021 -262.318,-42.35C-262.318,-44.316 -262.873,-45.83 -263.989,-46.877C-265.102,-47.937 -267.191,-48.461 -270.266,-48.461L-277.658,-48.461L-277.658,-36.07ZM-294.52,-0.002L-294.52,-60.766L-266.52,-60.766C-261.33,-60.766 -257.356,-60.271 -254.62,-59.266C-251.874,-58.276 -249.661,-56.424 -247.977,-53.736C-246.293,-51.035 -245.458,-47.739 -245.458,-43.863C-245.458,-40.497 -246.104,-37.584 -247.393,-35.137C-248.673,-32.675 -250.445,-30.695 -252.709,-29.168C-254.141,-28.205 -256.115,-27.399 -258.608,-26.764C-256.61,-26.013 -255.153,-25.277 -254.24,-24.528C-253.634,-24.033 -252.735,-22.957 -251.558,-21.332C-250.393,-19.705 -249.61,-18.447 -249.218,-17.555L-241.052,-0.002L-260.038,-0.002L-269.013,-18.531C-270.152,-20.935 -271.166,-22.492 -272.051,-23.213C-273.266,-24.147 -274.646,-24.614 -276.177,-24.614L-277.658,-24.614L-277.658,-0.002L-294.52,-0.002ZM-322.62,-60.766L-305.835,-60.766L-305.835,-24.571C-305.835,-20.992 -306.34,-17.598 -307.342,-14.416C-308.34,-11.218 -309.911,-8.432 -312.05,-6.042C-314.19,-3.652 -316.43,-1.982 -318.772,-1.006C-322.036,0.338 -325.96,1.017 -330.529,1.017C-333.175,1.017 -336.062,0.804 -339.188,0.393C-342.315,-0.016 -344.936,-0.837 -347.035,-2.068C-349.137,-3.298 -351.062,-5.037 -352.793,-7.3C-354.541,-9.563 -355.732,-11.898 -356.378,-14.302C-357.416,-18.163 -357.933,-21.586 -357.933,-24.571L-357.933,-60.766L-341.15,-60.766L-341.15,-23.708C-341.15,-20.399 -340.327,-17.809 -338.695,-15.957C-337.048,-14.089 -334.77,-13.156 -331.859,-13.156C-328.986,-13.156 -326.72,-14.075 -325.075,-15.914C-323.441,-17.739 -322.62,-20.342 -322.62,-23.708L-322.62,-60.766ZM-400.072,-47.017L-400.072,-13.835L-395.946,-13.835C-392.427,-13.835 -389.92,-14.273 -388.427,-15.137C-386.945,-16.014 -385.782,-17.527 -384.933,-19.691C-384.086,-21.87 -383.668,-25.377 -383.668,-30.243C-383.668,-36.678 -384.605,-41.077 -386.492,-43.454C-388.377,-45.83 -391.502,-47.017 -395.87,-47.017L-400.072,-47.017ZM-416.856,-60.766L-391.882,-60.766C-386.971,-60.766 -382.983,-60.017 -379.959,-58.53C-376.934,-57.032 -374.427,-54.896 -372.441,-52.109C-370.467,-49.308 -369.035,-46.069 -368.148,-42.364C-367.25,-38.658 -366.808,-34.74 -366.808,-30.595C-366.808,-24.104 -367.466,-19.069 -368.795,-15.49C-370.111,-11.912 -371.948,-8.914 -374.302,-6.494C-376.656,-4.076 -379.175,-2.463 -381.869,-1.657C-385.553,-0.554 -388.894,-0.002 -391.882,-0.002L-416.856,-0.002L-416.856,-60.766Z" style="fill:rgb(237,28,36);fill-rule:nonzero;"/>
            </g>
            <g transform="matrix(1,0,0,1,106.924,172.814)">
                <path d="M0,34.366L474.699,34.366M0,17.183L474.699,17.183M0,0L474.699,0" style="fill:none;fill-rule:nonzero;stroke:rgb(0,174,239);stroke-width:7.1px;"/>
            </g>
            <g transform="matrix(1,0,0,1,591.623,95.6347)">
                <path d="M0,-16.054C-4.426,-16.054 -8.027,-12.453 -8.027,-8.027C-8.027,-3.601 -4.426,0 0,0C4.426,0 8.027,-3.601 8.027,-8.027C8.027,-12.453 4.426,-16.054 0,-16.054M0,1.343C-5.167,1.343 -9.37,-2.86 -9.37,-8.027C-9.37,-13.194 -5.167,-17.397 0,-17.397C5.166,-17.397 9.369,-13.194 9.369,-8.027C9.369,-2.86 5.166,1.343 0,1.343" style="fill:rgb(102,103,102);fill-rule:nonzero;"/>
            </g>
            <g transform="matrix(1,0,0,1,591.903,91.0485)">
                <path d="M0,-7.154L-1.771,-7.154L-1.771,-3.879L0,-3.879C1.251,-3.879 1.813,-4.568 1.813,-5.538C1.813,-6.522 1.251,-7.154 0,-7.154M0,-8.461C2.319,-8.461 3.457,-7.126 3.457,-5.538C3.457,-4.385 2.839,-3.149 1.195,-2.741L3.612,1.307L1.701,1.307L-0.548,-2.601L-1.771,-2.601L-1.771,1.307L-3.373,1.307L-3.373,-8.461L0,-8.461Z" style="fill:rgb(102,103,102);fill-rule:nonzero;"/>
            </g>
        </g>
    </g>
</svg>
