<svg xmlns="http://www.w3.org/2000/svg" xmlns:xlink="http://www.w3.org/1999/xlink" width="94" height="61.1" viewBox="0 0 94 61.1">
  <defs>
    <clipPath id="clip-path">
      <rect id="Rectangle_57751" data-name="Rectangle 57751" width="94" height="61.1" fill="none"/>
    </clipPath>
  </defs>
  <g id="Group_154843" data-name="Group 154843" transform="translate(0 0)">
    <g id="Group_154842" data-name="Group 154842" transform="translate(0 0)" clip-path="url(#clip-path)">
      <path id="Path_103480" data-name="Path 103480" d="M85.976,15.275a13.3,13.3,0,1,1-13.3-13.3,13.3,13.3,0,0,1,13.3,13.3m1.975,0A15.275,15.275,0,1,1,72.677,0,15.275,15.275,0,0,1,87.952,15.275M70.765,18.054l1.283-2.5a.674.674,0,0,1,.621-.269c.476,0,6.456-.083,6.456-.083s.29-.021.145.29l-1.387,2.628s-.062.166-.455.166l-6.56.082s-.228-.02-.1-.31M83.218,7.192,81.5,10.669l-5.436.131a3.647,3.647,0,0,0-2.856,1.828L67.548,22.913a1.193,1.193,0,0,1-.866.572l-4.44-.229s-.473.049-.1-.62c0,0,4.047-8.328,7.3-13.584a3.725,3.725,0,0,1,3.352-1.78s4.176-.164,10.425-.081" transform="translate(-25.677 0)" fill="#006cb5" fill-rule="evenodd"/>
      <path id="Path_103481" data-name="Path 103481" d="M25.911,66.5c3.061,0,5.557,1.5,5.557,3.339s-2.5,3.339-5.557,3.339-5.558-1.5-5.558-3.339,2.5-3.339,5.558-3.339m50.532.937c-2.556-1.761-9.612-2.716-10.7,2.2,0,4.64,6.4,5.069,9.619,3.114l2.668,2.654C71.761,80.016,58.743,77.6,58.8,70c.651-9.057,14.757-9.116,19.778-5.678ZM0,77.332V62.52H13.584v3.106H5.514v2.984h6.059v2.865H5.514v5.856Zm80.323.062V62.52H94v3.1H85.894v2.742H94v3.047H85.894v2.734H94v3.251ZM50.7,66.674c-.028-1.258-1.617-1.7-2.008-1.7H45.851v3.637h2.837a1.8,1.8,0,0,0,2.008-1.94m8.019,10.663H52.2l-3.261-4.781c-.489-.658-1.064-1.46-1.417-1.409l-1.67-.011v6.2H39.842V62.474H48.73q.785,0,1.476.024t1.649.118A11.474,11.474,0,0,1,53.5,62.9c1.8.446,3.486,1.748,3.486,3.772s-1.7,3.248-3.518,3.678ZM25.911,62.078c6.4,0,11.627,3.488,11.627,7.765s-5.223,7.765-11.627,7.765S14.285,74.12,14.285,69.843s5.223-7.765,11.626-7.765" transform="translate(0 -27.768)" fill="#006cb5" fill-rule="evenodd"/>
      <rect id="Rectangle_57750" data-name="Rectangle 57750" width="93.999" height="0.752" transform="translate(0.001 52.342)" fill="#2b2a29"/>
      <path id="Path_103482" data-name="Path 103482" d="M87.717,105.775c-.023-.405-.053-.735-.088-.991a3.721,3.721,0,0,0,1.474.356,1.541,1.541,0,0,0,.495-.078.692.692,0,0,0,.34-.219.505.505,0,0,0,.11-.317.55.55,0,0,0-.052-.244,1.16,1.16,0,0,0-.266-.307c-.157-.147-.439-.387-.843-.723-.193-.162-.327-.278-.4-.346a2.894,2.894,0,0,1-.38-.41,1.231,1.231,0,0,1-.191-.361,1.264,1.264,0,0,1,.16-1.088,1.425,1.425,0,0,1,.651-.515,2.777,2.777,0,0,1,1.09-.185,7.194,7.194,0,0,1,1.334.14q.022.415.083.95a3.463,3.463,0,0,0-1.192-.24,1.148,1.148,0,0,0-.665.177.5.5,0,0,0-.259.413.537.537,0,0,0,.018.135.573.573,0,0,0,.054.135,1.151,1.151,0,0,0,.129.172,2.149,2.149,0,0,0,.272.248c.118.094.221.17.305.229l.511.447c.129.1.245.206.348.3a3.164,3.164,0,0,1,.263.284,1.505,1.505,0,0,1,.171.259,1.245,1.245,0,0,1,.093.254,1.139,1.139,0,0,1,.031.274,1.3,1.3,0,0,1-.161.632,1.319,1.319,0,0,1-.464.49,1.948,1.948,0,0,1-.663.265,3.8,3.8,0,0,1-.763.074,5.275,5.275,0,0,1-.616-.044c-.235-.03-.545-.086-.928-.167m-11.281.116q.125-1.19.187-2.735t.062-2.715q.5.008.832.008.361,0,.707-.012c.23-.008.474-.012.731-.012a6.447,6.447,0,0,1,.86.052,1.658,1.658,0,0,1,.673.239,1.226,1.226,0,0,1,.437.455,1.311,1.311,0,0,1,.143.623,1.655,1.655,0,0,1-.054.425,1.433,1.433,0,0,1-.16.379,1.382,1.382,0,0,1-.25.312,1.476,1.476,0,0,1-.287.211,1.755,1.755,0,0,1-.325.134c-.122.038-.285.083-.49.136l.281.527c.092.168.265.468.518.9l.419.705c.023.039.089.16.2.364-.336-.006-.56-.008-.668-.008-.131,0-.366,0-.7.008l-.46-1.062c-.081-.162-.177-.354-.29-.575l-.5-.971c-.05-.091-.119-.226-.207-.407a3.034,3.034,0,0,0,.505.048,1.8,1.8,0,0,0,.65-.112.927.927,0,0,0,.453-.344.9.9,0,0,0,.157-.51.711.711,0,0,0-.068-.31.6.6,0,0,0-.23-.244.95.95,0,0,0-.385-.127,3.5,3.5,0,0,0-.449-.029c-.082,0-.2,0-.339,0s-.322,0-.531,0l-.075,1.64-.078,2.994-.642-.008c-.1,0-.312,0-.627.008M66.447,101.2a2.078,2.078,0,0,0-1.089.278,1.761,1.761,0,0,0-.7.758,2.347,2.347,0,0,0-.234,1.04,2.036,2.036,0,0,0,.227.956,1.5,1.5,0,0,0,.693.668,2.271,2.271,0,0,0,1.011.229,2.238,2.238,0,0,0,.783-.137,1.688,1.688,0,0,0,.645-.413,1.77,1.77,0,0,0,.407-.668,2.441,2.441,0,0,0,.137-.815,2.376,2.376,0,0,0-.122-.758,1.616,1.616,0,0,0-.379-.626,1.579,1.579,0,0,0-.62-.387,2.326,2.326,0,0,0-.761-.125m.067-.85a4.259,4.259,0,0,1,1.185.164,2.72,2.72,0,0,1,1.008.533,2.45,2.45,0,0,1,.663.859,2.765,2.765,0,0,1,.223,1.146,3.337,3.337,0,0,1-.211,1.176,2.493,2.493,0,0,1-.655.966,2.784,2.784,0,0,1-1.08.6,4.616,4.616,0,0,1-2.61.017,2.767,2.767,0,0,1-1.052-.563,2.2,2.2,0,0,1-.632-.88,2.975,2.975,0,0,1-.191-1.075,3.165,3.165,0,0,1,.238-1.214,2.416,2.416,0,0,1,.7-.958,3.168,3.168,0,0,1,1.08-.574,4.384,4.384,0,0,1,1.333-.2m-12.963,5.545.092-1.167.091-1.736.057-1.708H53.5l-.269,0-.258,0-.958.028c.023-.383.035-.675.038-.874q1.193.008,2.5.008l1.488,0,.8,0c-.028.379-.041.669-.041.874-.5-.023-.979-.035-1.438-.035h-.319l-.05.729-.12,2.805-.009.47c0,.195,0,.4,0,.606l-.63-.008-.676.008m-11.2-4.695a2.078,2.078,0,0,0-1.089.278,1.762,1.762,0,0,0-.7.758,2.347,2.347,0,0,0-.234,1.04,2.036,2.036,0,0,0,.227.956,1.5,1.5,0,0,0,.693.668,2.271,2.271,0,0,0,1.011.229,2.238,2.238,0,0,0,.783-.137,1.688,1.688,0,0,0,.645-.413,1.763,1.763,0,0,0,.407-.668,2.441,2.441,0,0,0,.137-.815,2.376,2.376,0,0,0-.122-.758,1.616,1.616,0,0,0-.379-.626,1.579,1.579,0,0,0-.62-.387,2.326,2.326,0,0,0-.761-.125m.067-.85a4.259,4.259,0,0,1,1.185.164,2.72,2.72,0,0,1,1.008.533,2.45,2.45,0,0,1,.663.859,2.765,2.765,0,0,1,.223,1.146,3.337,3.337,0,0,1-.211,1.176,2.493,2.493,0,0,1-.655.966,2.784,2.784,0,0,1-1.08.6,4.614,4.614,0,0,1-2.61.017,2.77,2.77,0,0,1-1.052-.563,2.2,2.2,0,0,1-.632-.88,2.964,2.964,0,0,1-.191-1.075,3.165,3.165,0,0,1,.238-1.214,2.411,2.411,0,0,1,.7-.958,3.168,3.168,0,0,1,1.08-.574,4.384,4.384,0,0,1,1.333-.2m-16.9,5.545.108-.9.273-3.17.1-1.378q.592.008.866.008c.147,0,.413,0,.8-.008.044.216.077.368.1.459s.065.236.129.435.144.442.245.726q.219.647.394,1.278l.315,1.142.555-1.465.809-1.9c.027-.065.055-.138.085-.221s.078-.234.147-.45q.492.008.878.008c.171,0,.444,0,.821-.008q-.057,1.149-.087,2.541t-.029,2.078q0,.332.009.83-.41-.008-.559-.008c-.144,0-.335,0-.573.008.017-.271.027-.495.033-.67l.071-2.375c.008-.335.013-.666.013-.99l0-.323-1.529,3.883-.178.476c-.269-.006-.451-.008-.552-.008-.124,0-.319,0-.584.008l-.713-2.459c-.024-.087-.082-.271-.174-.55l-.256-.815c-.025-.076-.044-.14-.056-.189s-.04-.158-.081-.328l-.054.511q-.022.243-.062.814l-.161,2.475c-.006.122-.01.3-.013.543l-.534-.008c-.092,0-.273,0-.543.008" transform="translate(-11.412 -44.886)" fill="#2b2a29"/>
    </g>
  </g>
</svg>
